# xmcd
#
# Track frame offsets:
#	183
#	34673
#	56105
#	89915
#	102555
#	116090
#	146370
#	160840
#	229903
#	258190
#
# Disc length: 3849
#
# Revision: 1
# Processed by: cddbd v1.5.1PL0 Copyright (c) Steve Scherf et al.
# Submitted via: dBpowerAMP V4.0
# Normalized: r0:DSETVAR1,TDELIM( - )
#
DISCID=8c0f070a
DTITLE=Various Artist - I grandi della musica Black and Soul - Funk
DYEAR=1900
DGENRE=
TTITLE0=Kool and The Gang - Funky stuff
TTITLE1=Ohio Players - Love rollercoaster
TTITLE2=Funkadelic - One nation under a groove
TTITLE3=Meters - Crissy Strut
TTITLE4=Sly and The Family Stone - Dance to the music
TTITLE5=Parliament - Aquaboogie
TTITLE6=B.T. Express - Do it (til you're satisfied)
TTITLE7=Funkadelic - (Not just) knee deep
TTITLE8=Sly and The Family Stone - Somebody to you
TTITLE9=Sequence - Funk you up
EXTD=
EXTT0=
EXTT1=
EXTT2=
EXTT3=
EXTT4=
EXTT5=
EXTT6=
EXTT7=
EXTT8=
EXTT9=
PLAYORDER=
